<svg xmlns="http://www.w3.org/2000/svg" xmlns:xlink="http://www.w3.org/1999/xlink" width="650" zoomAndPan="magnify" viewBox="0 0 487.5 487.499999" height="650" preserveAspectRatio="xMidYMid meet" version="1.0"><defs><clipPath id="11d551004e"><path d="M 89.761719 89.761719 L 397.238281 89.761719 L 397.238281 397.238281 L 89.761719 397.238281 Z M 89.761719 89.761719 " clip-rule="nonzero"/></clipPath><clipPath id="93be46133e"><path d="M 243.5 89.761719 C 158.59375 89.761719 89.761719 158.59375 89.761719 243.5 C 89.761719 328.40625 158.59375 397.238281 243.5 397.238281 C 328.40625 397.238281 397.238281 328.40625 397.238281 243.5 C 397.238281 158.59375 328.40625 89.761719 243.5 89.761719 Z M 243.5 89.761719 " clip-rule="nonzero"/></clipPath><clipPath id="3a56848190"><path d="M 118 133.546875 L 368 133.546875 L 368 332.839844 L 118 332.839844 Z M 118 133.546875 " clip-rule="nonzero"/></clipPath></defs><g clip-path="url(#11d551004e)"><g clip-path="url(#93be46133e)"><path fill="#dedede" d="M 89.761719 89.761719 L 397.238281 89.761719 L 397.238281 397.238281 L 89.761719 397.238281 Z M 89.761719 89.761719 " fill-opacity="1" fill-rule="nonzero"/></g></g><g clip-path="url(#3a56848190)"><path fill="#000000" d="M 246.90625 331.910156 C 245.476562 331.320312 244.808594 329.386719 243.402344 329.046875 C 239.417969 328.816406 235.300781 329.050781 231.582031 327.328125 C 228.601562 326.375 225.503906 325.09375 223.804688 322.285156 C 221.871094 320.925781 221.707031 315.789062 218.96875 317.054688 C 215.394531 318.898438 211.261719 320.132812 207.269531 318.972656 C 201.941406 317.671875 196.785156 315.574219 192.007812 312.886719 C 187.179688 309.84375 182.859375 306.042969 177.980469 303.078125 C 174.84375 302.53125 175.839844 307.296875 174.859375 309.203125 C 173.914062 312.023438 171.46875 314.0625 170.875 317.054688 C 169.261719 318.855469 166.523438 319.699219 164.121094 319.472656 C 161.460938 318.761719 159.503906 321.734375 156.933594 322.300781 C 153.203125 324.191406 148.855469 324.238281 144.8125 323.613281 C 141.746094 322.636719 139.542969 320.113281 136.605469 318.886719 C 133.46875 315.878906 131.890625 311.757812 130.101562 307.890625 C 128.921875 308.976562 127.429688 310.753906 125.722656 309.535156 C 123.554688 308.203125 125.636719 305.140625 123.480469 303.890625 C 122.21875 301.910156 120.507812 300.226562 119.453125 297.980469 C 117.753906 296.222656 118.578125 293.609375 118.382812 291.402344 C 118.449219 290.140625 118.257812 288.796875 118.472656 287.578125 C 120.292969 284.636719 122.75 282.1875 124.992188 279.585938 C 126.425781 277.085938 127.527344 274.421875 128.699219 271.8125 C 130.355469 269.078125 131.46875 265.316406 134.8125 264.214844 C 138.730469 263.484375 141.660156 267.449219 142.597656 270.800781 C 143.113281 272.316406 144.023438 273.632812 144.910156 274.945312 C 146.6875 268.085938 148.8125 261.292969 151.9375 254.914062 C 153.117188 252.03125 153.710938 248.894531 155.617188 246.339844 C 157.722656 242.734375 161.039062 240.1875 164.160156 237.527344 C 170.070312 232.082031 178.03125 230.035156 185.382812 227.316406 C 188.359375 226.355469 191.300781 225.175781 194.386719 224.621094 C 195.734375 224.652344 196.707031 226.277344 198 225.210938 C 208.378906 221.199219 218.832031 217.324219 228.890625 212.554688 C 233.847656 209.757812 238.371094 206.191406 243.480469 203.675781 C 245.8125 202.15625 250.453125 203.148438 250.390625 199.351562 C 251.160156 196.828125 250.1875 194.304688 248.429688 192.648438 C 246.511719 188.6875 244.492188 184.660156 244.046875 180.207031 C 243.261719 173.335938 244 166.230469 246.238281 159.6875 C 247.480469 157.144531 246.527344 154.136719 248.4375 151.890625 C 250.429688 148.160156 253.121094 144.339844 257.132812 142.632812 C 262.179688 141.097656 265.933594 136.777344 271.179688 135.679688 C 276.941406 133.535156 283.195312 133.605469 289.25 133.753906 C 292.269531 134.582031 295.582031 134.351562 298.417969 135.769531 C 301.589844 137.238281 304.726562 138.933594 308.167969 139.667969 C 310.476562 140.492188 313.414062 141.179688 315.371094 143.097656 C 318.230469 145.480469 321.445312 147.480469 324.128906 150.042969 C 326.964844 152.902344 328.773438 156.53125 331.003906 159.851562 C 332.625 162.144531 333.835938 164.664062 334.222656 167.421875 C 334.523438 170.832031 334.230469 174.257812 333.179688 177.523438 C 332.601562 180.347656 331.324219 183.097656 331.347656 186 C 332.363281 187.597656 328.554688 189.960938 331.636719 190.925781 C 333.148438 192.707031 328.285156 192.09375 329.316406 194.613281 C 327.507812 197.242188 330.109375 199.539062 331.460938 201.628906 C 333.730469 204.265625 331.28125 206.433594 328.847656 207.339844 C 327.523438 209.714844 326.824219 213.046875 323.304688 213.25 C 320.746094 213.847656 316.773438 214.28125 318.441406 217.945312 C 319.75 219.339844 321.164062 222.9375 318.296875 223.292969 C 316.554688 222.957031 314.273438 223.003906 313.722656 225.148438 C 312.015625 228 314.75 230.265625 315.964844 232.617188 C 318.492188 237.011719 318.695312 242.265625 321.074219 246.714844 C 324.671875 253.753906 327.84375 261.117188 332.621094 267.464844 C 335.132812 270.457031 338.671875 272.578125 340.3125 276.269531 C 343.253906 281.933594 344.988281 288.085938 346.910156 294.136719 C 348.722656 298.71875 350.144531 303.660156 353.332031 307.515625 C 355.304688 309.992188 358.785156 309.691406 361.503906 310.789062 C 364.148438 311.738281 369.40625 316.253906 367.199219 317.46875 C 366.195312 318.019531 365.363281 316.820312 364.765625 317.375 C 363.476562 318.574219 365.46875 318.363281 364.394531 319.25 C 363.234375 320.203125 358.390625 319.308594 355.332031 319.785156 C 351.355469 319.699219 347.675781 317.875 343.691406 317.796875 C 341.710938 317.585938 339.734375 317.332031 337.761719 317.074219 C 336.222656 318.96875 334.761719 321.359375 332.054688 321.523438 C 330.351562 322.503906 327.054688 320.714844 329.546875 319.164062 C 331.921875 316.632812 328.707031 314.117188 328.941406 311.398438 C 328.566406 310.164062 330.445312 308.632812 329.136719 307.800781 C 325.246094 304.425781 322.46875 300.023438 318.835938 296.398438 C 315.878906 293.335938 313.882812 289.554688 312.171875 285.699219 C 310.820312 283.605469 308.167969 282.703125 306.921875 280.460938 C 302.632812 273.453125 302.707031 264.722656 298.574219 257.628906 C 297.644531 256.097656 296.863281 252.804688 294.914062 255.316406 C 288.605469 259.558594 284.238281 266.246094 277.332031 269.652344 C 273.386719 271.707031 269.242188 273.511719 265.933594 276.578125 C 261.363281 280.179688 257.148438 284.324219 252.0625 287.207031 C 248.613281 289.222656 244.78125 290.382812 241 291.5625 C 241.300781 295.921875 242.25 300.207031 242.910156 304.523438 L 247.367188 313.464844 C 253.796875 313.347656 260.183594 314.460938 266.453125 315.761719 C 269.066406 316.691406 272.113281 318.191406 273.128906 320.925781 C 274.152344 323.121094 276.070312 326.960938 272.289062 327.242188 C 270.191406 330.355469 267.421875 326.195312 265.640625 324.832031 C 263.355469 324.570312 267.382812 328.976562 264.203125 329.421875 C 261.21875 330.101562 259.585938 326.574219 256.835938 326.847656 C 254.683594 327.046875 252.625 327.726562 250.550781 328.296875 C 250.492188 329.828125 251.378906 332.351562 249.300781 332.765625 C 248.425781 332.824219 247.613281 332.375 246.90625 331.910156 Z M 246.90625 331.910156 " fill-opacity="1" fill-rule="nonzero"/></g></svg>