<svg xmlns="http://www.w3.org/2000/svg" xmlns:xlink="http://www.w3.org/1999/xlink" width="650" zoomAndPan="magnify" viewBox="0 0 487.5 487.499999" height="650" preserveAspectRatio="xMidYMid meet" version="1.0"><defs><clipPath id="cf295db4e2"><path d="M 89.761719 89.761719 L 397.238281 89.761719 L 397.238281 397.238281 L 89.761719 397.238281 Z M 89.761719 89.761719 " clip-rule="nonzero"/></clipPath><clipPath id="f6495312a0"><path d="M 243.5 89.761719 C 158.59375 89.761719 89.761719 158.59375 89.761719 243.5 C 89.761719 328.40625 158.59375 397.238281 243.5 397.238281 C 328.40625 397.238281 397.238281 328.40625 397.238281 243.5 C 397.238281 158.59375 328.40625 89.761719 243.5 89.761719 Z M 243.5 89.761719 " clip-rule="nonzero"/></clipPath><clipPath id="d7066ef548"><path d="M 159 147.441406 L 241 147.441406 L 241 185 L 159 185 Z M 159 147.441406 " clip-rule="nonzero"/></clipPath><clipPath id="e843ab3d93"><path d="M 147.441406 196 L 228 196 L 228 339.242188 L 147.441406 339.242188 Z M 147.441406 196 " clip-rule="nonzero"/></clipPath><clipPath id="65862b5e0b"><path d="M 209 264 L 278 264 L 278 339.242188 L 209 339.242188 Z M 209 264 " clip-rule="nonzero"/></clipPath><clipPath id="d9c2afb771"><path d="M 270 246.433594 L 339.242188 246.433594 L 339.242188 338 L 270 338 Z M 270 246.433594 " clip-rule="nonzero"/></clipPath></defs><g clip-path="url(#cf295db4e2)"><g clip-path="url(#f6495312a0)"><path fill="#dedede" d="M 89.761719 89.761719 L 397.238281 89.761719 L 397.238281 397.238281 L 89.761719 397.238281 Z M 89.761719 89.761719 " fill-opacity="1" fill-rule="nonzero"/></g></g><g clip-path="url(#d7066ef548)"><path fill="#000000" d="M 166 178.375 L 234.058594 178.375 L 234.058594 159.8125 C 234.058594 156.40625 231.28125 153.625 227.875 153.625 L 172.1875 153.625 C 168.78125 153.625 166 156.40625 166 159.8125 Z M 237.152344 184.5625 L 162.90625 184.5625 C 161.203125 184.5625 159.8125 183.171875 159.8125 181.46875 L 159.8125 159.8125 C 159.8125 152.988281 165.359375 147.441406 172.1875 147.441406 L 227.875 147.441406 C 234.699219 147.441406 240.246094 152.988281 240.246094 159.8125 L 240.246094 181.46875 C 240.246094 183.171875 238.859375 184.5625 237.152344 184.5625 " fill-opacity="1" fill-rule="nonzero"/></g><path fill="#000000" d="M 230.96875 203.125 C 229.261719 203.125 227.875 201.734375 227.875 200.03125 L 227.875 181.46875 C 227.875 179.765625 229.261719 178.375 230.96875 178.375 C 232.671875 178.375 234.058594 179.765625 234.058594 181.46875 L 234.058594 200.03125 C 234.058594 201.734375 232.671875 203.125 230.96875 203.125 " fill-opacity="1" fill-rule="nonzero"/><path fill="#000000" d="M 169.09375 203.125 C 167.390625 203.125 166 201.734375 166 200.03125 L 166 181.46875 C 166 179.765625 167.390625 178.375 169.09375 178.375 C 170.796875 178.375 172.1875 179.765625 172.1875 181.46875 L 172.1875 200.03125 C 172.1875 201.734375 170.796875 203.125 169.09375 203.125 " fill-opacity="1" fill-rule="nonzero"/><g clip-path="url(#e843ab3d93)"><path fill="#000000" d="M 224.78125 339.242188 L 166 339.242188 C 155.765625 339.242188 147.441406 330.917969 147.441406 320.679688 L 147.441406 215.5 C 147.441406 205.261719 155.765625 196.9375 166 196.9375 L 169.09375 196.9375 C 170.796875 196.9375 172.1875 198.328125 172.1875 200.03125 C 172.1875 201.734375 170.796875 203.125 169.09375 203.125 L 166 203.125 C 159.171875 203.125 153.625 208.671875 153.625 215.5 L 153.625 320.679688 C 153.625 327.507812 159.171875 333.054688 166 333.054688 L 224.78125 333.054688 C 226.484375 333.054688 227.875 334.445312 227.875 336.148438 C 227.875 337.851562 226.484375 339.242188 224.78125 339.242188 " fill-opacity="1" fill-rule="nonzero"/></g><path fill="#000000" d="M 249.527344 268.089844 C 247.824219 268.089844 246.433594 266.699219 246.433594 264.996094 L 246.433594 215.5 C 246.433594 208.671875 240.886719 203.125 234.058594 203.125 L 187.65625 203.125 C 185.953125 203.125 184.5625 201.734375 184.5625 200.03125 C 184.5625 198.328125 185.953125 196.9375 187.65625 196.9375 L 234.058594 196.9375 C 244.296875 196.9375 252.621094 205.261719 252.621094 215.5 L 252.621094 264.996094 C 252.621094 266.699219 251.234375 268.089844 249.527344 268.089844 " fill-opacity="1" fill-rule="nonzero"/><path fill="#000000" d="M 249.527344 234.0625 L 166 234.0625 C 164.296875 234.0625 162.90625 232.671875 162.90625 230.96875 C 162.90625 229.261719 164.296875 227.875 166 227.875 L 249.527344 227.875 C 251.234375 227.875 252.621094 229.261719 252.621094 230.96875 C 252.621094 232.671875 251.234375 234.0625 249.527344 234.0625 " fill-opacity="1" fill-rule="nonzero"/><path fill="#000000" d="M 206.21875 314.496094 L 169.09375 314.496094 C 167.390625 314.496094 166 313.105469 166 311.402344 C 166 309.695312 167.390625 308.308594 169.09375 308.308594 L 206.21875 308.308594 C 207.921875 308.308594 209.3125 309.695312 209.3125 311.402344 C 209.3125 313.105469 207.921875 314.496094 206.21875 314.496094 " fill-opacity="1" fill-rule="nonzero"/><g clip-path="url(#65862b5e0b)"><path fill="#000000" d="M 216.417969 271.390625 C 214.714844 275.328125 213.746094 298.554688 227.921875 314.988281 C 241.832031 329.960938 258.710938 332.691406 271.160156 333.019531 C 271.316406 325.539062 270.484375 304.851562 257.527344 290.375 C 242.640625 273.734375 220.707031 269.925781 216.417969 271.390625 Z M 274.097656 339.242188 C 260.320312 339.242188 240.066406 337.164062 223.316406 319.109375 C 206.941406 300.136719 207.875 271.558594 211.863281 267.097656 C 213.117188 265.683594 215.414062 264.996094 218.871094 264.996094 C 228.621094 264.996094 248.1875 270.664062 262.132812 286.242188 C 279.96875 306.167969 277.296875 335.230469 277.175781 336.453125 C 277.019531 338.035156 275.691406 339.242188 274.097656 339.242188 " fill-opacity="1" fill-rule="nonzero"/></g><g clip-path="url(#d9c2afb771)"><path fill="#000000" d="M 331.945312 252.851562 Z M 286.652344 337.792969 C 285.203125 337.792969 283.898438 336.777344 283.617188 335.292969 C 283.292969 333.613281 284.390625 331.992188 286.058594 331.667969 C 298.253906 329.296875 308.210938 323.425781 318.347656 312.621094 C 335.242188 293.203125 334.300781 258.167969 331.703125 252.753906 C 327.425781 251.4375 302.589844 257.382812 282.628906 277.152344 C 280.136719 279.617188 277.925781 282.324219 276.078125 285.226562 C 275.160156 286.664062 273.238281 287.085938 271.8125 286.167969 C 270.363281 285.238281 269.949219 283.328125 270.871094 281.890625 C 272.972656 278.617188 275.460938 275.535156 278.265625 272.753906 C 296.875 254.324219 320.609375 246.207031 330.566406 246.445312 C 333.226562 246.519531 335.085938 247.171875 336.246094 248.464844 C 341.515625 254.289062 341.914062 294.953125 322.941406 316.765625 C 311.921875 328.511719 300.609375 335.144531 287.242188 337.746094 C 287.039062 337.78125 286.84375 337.792969 286.652344 337.792969 " fill-opacity="1" fill-rule="nonzero"/></g><path fill="#000000" d="M 261.902344 323.773438 C 260.898438 323.773438 259.921875 323.292969 259.328125 322.398438 C 247.546875 304.730469 229.757812 295.691406 229.578125 295.605469 C 228.054688 294.84375 227.4375 292.984375 228.199219 291.449219 C 228.960938 289.925781 230.820312 289.308594 232.355469 290.070312 C 233.140625 290.457031 251.789062 299.933594 264.476562 318.964844 C 265.429688 320.390625 265.042969 322.3125 263.617188 323.253906 C 263.085938 323.605469 262.496094 323.773438 261.902344 323.773438 " fill-opacity="1" fill-rule="nonzero"/><path fill="#000000" d="M 283.558594 314.496094 C 283.085938 314.496094 282.617188 314.386719 282.167969 314.167969 C 280.644531 313.40625 280.03125 311.546875 280.789062 310.011719 C 290.289062 291.015625 314.699219 272.585938 315.738281 271.800781 C 317.105469 270.773438 319.039062 271.050781 320.066406 272.417969 C 321.09375 273.792969 320.8125 275.726562 319.449219 276.753906 C 319.207031 276.9375 295.171875 295.097656 286.324219 312.789062 C 285.78125 313.867188 284.695312 314.496094 283.558594 314.496094 " fill-opacity="1" fill-rule="nonzero"/></svg>