<svg xmlns="http://www.w3.org/2000/svg" xmlns:xlink="http://www.w3.org/1999/xlink" width="650" zoomAndPan="magnify" viewBox="0 0 487.5 487.499999" height="650" preserveAspectRatio="xMidYMid meet" version="1.0"><defs><clipPath id="095d4b8413"><path d="M 89.761719 89.761719 L 397.238281 89.761719 L 397.238281 397.238281 L 89.761719 397.238281 Z M 89.761719 89.761719 " clip-rule="nonzero"/></clipPath><clipPath id="18c575addb"><path d="M 243.5 89.761719 C 158.59375 89.761719 89.761719 158.59375 89.761719 243.5 C 89.761719 328.40625 158.59375 397.238281 243.5 397.238281 C 328.40625 397.238281 397.238281 328.40625 397.238281 243.5 C 397.238281 158.59375 328.40625 89.761719 243.5 89.761719 Z M 243.5 89.761719 " clip-rule="nonzero"/></clipPath><clipPath id="a516cef746"><path d="M 194 138.304688 L 292 138.304688 L 292 219 L 194 219 Z M 194 138.304688 " clip-rule="nonzero"/></clipPath><clipPath id="be34c5776c"><path d="M 147.640625 257 L 339.445312 257 L 339.445312 348.839844 L 147.640625 348.839844 Z M 147.640625 257 " clip-rule="nonzero"/></clipPath><clipPath id="e2e07e7d23"><path d="M 247 303 L 260 303 L 260 348.839844 L 247 348.839844 Z M 247 303 " clip-rule="nonzero"/></clipPath><clipPath id="b58b5acb4f"><path d="M 226 303 L 239 303 L 239 348.839844 L 226 348.839844 Z M 226 303 " clip-rule="nonzero"/></clipPath></defs><g clip-path="url(#095d4b8413)"><g clip-path="url(#18c575addb)"><path fill="#dedede" d="M 89.761719 89.761719 L 397.238281 89.761719 L 397.238281 397.238281 L 89.761719 397.238281 Z M 89.761719 89.761719 " fill-opacity="1" fill-rule="nonzero"/></g></g><path fill="#000000" d="M 201.558594 204.742188 C 198.925781 206.746094 197.21875 208.140625 196.589844 210.808594 C 195.878906 213.839844 196.496094 218.796875 198.449219 222.699219 C 200.347656 226.492188 203.492188 229.265625 207.175781 232.464844 C 207.578125 232.8125 207.875 233.261719 208.039062 233.765625 L 208.050781 233.800781 L 208.046875 233.796875 C 210.773438 242.242188 213.324219 249.992188 220.015625 256.78125 C 226.4375 263.292969 236.472656 268.734375 245.367188 268.734375 C 245.972656 268.734375 246.570312 268.707031 247.160156 268.65625 C 256.363281 267.859375 264.824219 260.582031 270.09375 253.386719 C 275.1875 246.421875 276.855469 240.105469 278.625 233.320312 C 278.78125 232.722656 279.121094 232.1875 279.601562 231.796875 C 283.355469 228.738281 286.453125 226.152344 288.132812 222.546875 C 289.847656 218.867188 290.152344 213.929688 289.265625 210.566406 C 288.441406 207.441406 286.566406 205.574219 284.0625 203.167969 C 282.90625 202.054688 282.871094 200.214844 283.980469 199.054688 C 285.09375 197.898438 286.933594 197.859375 288.089844 198.972656 C 290.53125 201.316406 293.597656 204.199219 294.886719 209.082031 C 296.113281 213.730469 295.703125 220.0625 293.402344 225.003906 C 291.0625 230.019531 286.835938 233.402344 283.273438 236.304688 L 284.25 234.785156 C 282.472656 241.601562 280.589844 248.886719 274.785156 256.820312 C 269.148438 264.523438 259.355469 273.4375 247.660156 274.449219 C 246.898438 274.515625 246.132812 274.546875 245.367188 274.546875 C 234.441406 274.546875 223.003906 268.09375 215.875 260.863281 C 208.097656 252.972656 205.214844 243.9375 202.515625 235.585938 L 202.507812 235.554688 L 203.367188 236.855469 C 199.828125 233.785156 195.746094 230.292969 193.25 225.300781 C 190.804688 220.410156 189.855469 214.058594 190.933594 209.476562 C 192.09375 204.539062 195.53125 202.019531 198.042969 200.113281 C 199.320312 199.140625 201.144531 199.390625 202.113281 200.667969 C 203.085938 201.949219 202.835938 203.773438 201.558594 204.742188 Z M 201.558594 204.742188 " fill-opacity="1" fill-rule="nonzero"/><g clip-path="url(#a516cef746)"><path fill="#000000" d="M 203.164062 216.738281 C 199.765625 208.394531 196.183594 199.648438 194.886719 190.394531 C 193.605469 181.226562 194.546875 171.453125 196.453125 166.292969 C 198.421875 160.96875 201.6875 159.929688 204.828125 159.929688 C 205.1875 159.929688 205.542969 159.941406 205.84375 159.953125 L 205.835938 159.949219 L 203.136719 161.59375 C 206.199219 155.246094 209.636719 147.984375 218.339844 143.460938 C 224.863281 140.066406 234.148438 138.308594 242.117188 138.308594 C 244.476562 138.308594 246.761719 138.460938 248.875 138.785156 C 258.390625 140.25 263.707031 145.113281 268.480469 149.4375 L 267.421875 148.824219 L 267.449219 148.832031 C 271.921875 150.273438 277.011719 151.882812 281.082031 154.980469 C 285.234375 158.144531 288.152344 162.679688 289.910156 167.546875 C 291.726562 172.570312 292.320312 178.003906 290.902344 186.277344 C 289.515625 194.371094 286.15625 205.402344 282.886719 216.15625 C 282.453125 217.578125 281.019531 218.445312 279.558594 218.167969 C 278.097656 217.886719 277.085938 216.550781 277.207031 215.070312 C 278.625 198.070312 279.625 183.476562 275.695312 178.300781 C 274.46875 176.683594 272.476562 175.90625 269.476562 175.90625 C 265.496094 175.90625 260.773438 177.28125 256.3125 178.605469 C 255.980469 178.707031 255.628906 178.8125 255.300781 178.90625 C 250.378906 180.359375 246.304688 181.429688 242.476562 181.429688 C 240.230469 181.429688 238.082031 181.066406 235.886719 180.246094 C 233.835938 179.480469 231.777344 178.324219 229.921875 177.292969 C 227.890625 176.160156 226.046875 175.140625 224.222656 174.460938 C 222.867188 173.957031 221.648438 173.6875 220.515625 173.6875 L 220.511719 173.6875 C 220.511719 173.6875 220.507812 173.6875 220.503906 173.6875 C 216.523438 173.6875 211.542969 177.183594 209.261719 184.730469 C 206.941406 192.414062 207.667969 203.601562 208.492188 215.628906 C 208.605469 217.230469 207.394531 218.621094 205.792969 218.730469 C 204.191406 218.839844 202.804688 217.628906 202.695312 216.027344 C 201.898438 204.429688 201 191.988281 203.699219 183.050781 C 206.433594 173.988281 213.097656 167.871094 220.503906 167.871094 C 220.5 167.871094 220.527344 167.871094 220.527344 167.871094 L 220.523438 167.871094 C 222.5625 167.875 224.488281 168.355469 226.253906 169.011719 C 228.5625 169.875 230.796875 171.125 232.75 172.210938 C 234.699219 173.296875 236.359375 174.214844 237.917969 174.796875 C 239.445312 175.367188 240.902344 175.617188 242.476562 175.617188 C 245.347656 175.617188 248.652344 174.804688 253.65625 173.328125 C 253.984375 173.234375 254.320312 173.132812 254.660156 173.03125 C 258.902344 171.773438 264.484375 170.089844 269.476562 170.089844 C 273.40625 170.089844 277.554688 171.132812 280.328125 174.785156 C 285.988281 182.246094 284.289062 200.105469 283.003906 215.550781 L 277.324219 214.464844 C 280.636719 203.5625 283.863281 192.941406 285.171875 185.292969 C 286.453125 177.824219 285.855469 173.433594 284.445312 169.523438 C 282.976562 165.457031 280.632812 161.945312 277.5625 159.609375 C 274.425781 157.222656 270.355469 155.875 265.667969 154.367188 L 265.636719 154.359375 C 265.246094 154.234375 264.886719 154.023438 264.578125 153.746094 C 259.84375 149.460938 255.648438 145.710938 247.992188 144.535156 C 246.21875 144.261719 244.234375 144.125 242.117188 144.125 C 234.792969 144.125 226.492188 145.773438 221.019531 148.617188 C 214.21875 152.15625 211.480469 157.679688 208.371094 164.121094 C 207.875 165.152344 206.816406 165.796875 205.671875 165.765625 L 205.671875 165.761719 L 205.664062 165.761719 C 205.347656 165.753906 205.082031 165.746094 204.828125 165.746094 C 203.730469 165.746094 202.902344 165.613281 201.90625 168.308594 C 200.417969 172.335938 199.457031 181.085938 200.644531 189.589844 C 201.824219 198.003906 205.097656 206.074219 208.550781 214.542969 C 209.15625 216.03125 208.441406 217.726562 206.953125 218.332031 C 205.46875 218.9375 203.773438 218.226562 203.164062 216.738281 Z M 203.164062 216.738281 " fill-opacity="1" fill-rule="nonzero"/></g><g clip-path="url(#be34c5776c)"><path fill="#000000" d="M 222.195312 261.683594 C 219.679688 269.558594 216.890625 278.546875 207.550781 284.507812 C 202.902344 287.476562 196.695312 289.628906 190.75 291.710938 C 185.007812 293.71875 179.390625 295.691406 174.710938 298.304688 C 165.167969 303.636719 159.277344 311.785156 152.996094 320.546875 L 152.226562 316.421875 L 152.277344 316.453125 C 167.785156 326.621094 182.902344 336.496094 207.296875 340.636719 C 216.949219 342.277344 228.105469 343.027344 239.515625 343.027344 C 257.128906 343.027344 275.175781 341.242188 288.988281 338.296875 C 311.5625 333.484375 322.902344 325.5625 334.519531 317.449219 L 333.585938 321.136719 C 329.449219 312.898438 325.675781 305.527344 316.738281 300.722656 C 312.371094 298.375 306.71875 296.601562 300.675781 294.714844 C 294.753906 292.867188 288.445312 290.914062 283.40625 288.203125 C 282.875 287.917969 282.355469 287.621094 281.84375 287.3125 C 271.472656 281.046875 268.023438 271.097656 264.882812 262.273438 C 264.34375 260.761719 265.132812 259.097656 266.648438 258.558594 C 268.160156 258.023438 269.820312 258.8125 270.359375 260.324219 C 273.578125 269.367188 276.484375 277.28125 284.851562 282.335938 C 285.269531 282.589844 285.707031 282.835938 286.160156 283.082031 C 290.609375 285.472656 296.332031 287.269531 302.40625 289.164062 C 308.292969 291 314.535156 292.933594 319.492188 295.601562 C 330.230469 301.371094 334.691406 310.382812 338.78125 318.527344 C 339.429688 319.816406 339.03125 321.390625 337.847656 322.214844 C 326.023438 330.472656 313.921875 338.925781 290.203125 343.984375 C 275.925781 347.027344 257.464844 348.839844 239.515625 348.839844 C 227.878906 348.839844 216.382812 348.078125 206.324219 346.371094 C 180.644531 342.011719 164.660156 331.523438 149.089844 321.316406 L 149.039062 321.285156 C 148.378906 320.851562 147.921875 320.164062 147.777344 319.386719 C 147.632812 318.605469 147.808594 317.800781 148.273438 317.160156 C 154.460938 308.527344 161.035156 299.28125 171.878906 293.226562 C 177.078125 290.324219 183.199219 288.191406 188.828125 286.21875 C 194.980469 284.066406 200.464844 282.132812 204.421875 279.605469 C 211.777344 274.914062 214.082031 267.972656 216.65625 259.914062 C 217.148438 258.382812 218.78125 257.539062 220.3125 258.027344 C 221.839844 258.519531 222.683594 260.15625 222.195312 261.683594 Z M 222.195312 261.683594 " fill-opacity="1" fill-rule="nonzero"/></g><path fill="#000000" d="M 273.957031 276.964844 L 244.511719 300.835938 C 243.402344 301.738281 241.796875 301.695312 240.734375 300.734375 L 212.792969 275.488281 C 211.601562 274.410156 211.507812 272.570312 212.582031 271.378906 C 213.660156 270.1875 215.496094 270.09375 216.6875 271.171875 L 244.632812 296.417969 L 240.851562 296.320312 L 270.296875 272.449219 C 271.542969 271.4375 273.375 271.628906 274.386719 272.875 C 275.394531 274.121094 275.203125 275.953125 273.957031 276.964844 Z M 273.957031 276.964844 " fill-opacity="1" fill-rule="nonzero"/><path fill="#000000" d="M 204.074219 284.335938 L 225.949219 309.925781 L 221.605469 309.839844 L 236.058594 294.191406 C 237.144531 293.011719 238.984375 292.9375 240.164062 294.027344 C 241.34375 295.117188 241.417969 296.957031 240.328125 298.136719 L 225.875 313.785156 C 225.3125 314.398438 224.511719 314.738281 223.683594 314.722656 C 222.851562 314.703125 222.070312 314.335938 221.53125 313.703125 L 199.652344 288.117188 C 198.609375 286.894531 198.753906 285.0625 199.972656 284.015625 C 201.195312 282.972656 203.027344 283.117188 204.074219 284.335938 Z M 204.074219 284.335938 " fill-opacity="1" fill-rule="nonzero"/><path fill="#000000" d="M 288.007812 288.570312 L 264.886719 314.1875 C 264.324219 314.808594 263.519531 315.160156 262.683594 315.144531 C 261.84375 315.132812 261.050781 314.753906 260.511719 314.113281 L 246.417969 297.4375 C 245.378906 296.210938 245.535156 294.378906 246.761719 293.339844 C 247.984375 292.304688 249.820312 292.457031 250.855469 293.683594 L 264.949219 310.359375 L 260.574219 310.289062 L 283.695312 284.675781 C 284.769531 283.484375 286.609375 283.390625 287.800781 284.464844 C 288.992188 285.542969 289.085938 287.378906 288.007812 288.570312 Z M 288.007812 288.570312 " fill-opacity="1" fill-rule="nonzero"/><g clip-path="url(#e2e07e7d23)"><path fill="#000000" d="M 258.792969 308.074219 L 252.714844 316.097656 L 253.234375 313.710938 C 254.453125 319.183594 255.730469 324.882812 256.226562 330.230469 C 256.726562 335.609375 256.433594 340.5625 256.15625 345.28125 C 256.0625 346.882812 254.6875 348.105469 253.085938 348.011719 C 251.484375 347.917969 250.261719 346.542969 250.355469 344.941406 C 250.632812 340.175781 250.890625 335.644531 250.4375 330.769531 C 249.980469 325.859375 248.796875 320.53125 247.558594 314.976562 C 247.375 314.140625 247.5625 313.269531 248.078125 312.585938 L 254.160156 304.5625 C 255.128906 303.28125 256.953125 303.03125 258.234375 304 C 259.511719 304.96875 259.761719 306.792969 258.792969 308.074219 Z M 258.792969 308.074219 " fill-opacity="1" fill-rule="nonzero"/></g><g clip-path="url(#b58b5acb4f)"><path fill="#000000" d="M 227.546875 308.386719 L 233.628906 316.410156 L 233.109375 314.023438 C 231.886719 319.492188 230.613281 325.195312 230.117188 330.542969 C 229.617188 335.921875 229.910156 340.875 230.183594 345.59375 C 230.277344 347.195312 231.652344 348.417969 233.257812 348.324219 C 234.859375 348.230469 236.082031 346.855469 235.988281 345.253906 C 235.710938 340.488281 235.449219 335.957031 235.902344 331.082031 C 236.359375 326.171875 237.542969 320.84375 238.78125 315.289062 C 238.96875 314.453125 238.777344 313.582031 238.261719 312.898438 L 232.183594 304.875 C 231.210938 303.59375 229.390625 303.34375 228.109375 304.3125 C 226.832031 305.28125 226.578125 307.105469 227.546875 308.386719 Z M 227.546875 308.386719 " fill-opacity="1" fill-rule="nonzero"/></g></svg>