<svg xmlns="http://www.w3.org/2000/svg" xmlns:xlink="http://www.w3.org/1999/xlink" width="650" zoomAndPan="magnify" viewBox="0 0 487.5 487.499999" height="650" preserveAspectRatio="xMidYMid meet" version="1.0"><defs><clipPath id="38e4a01d3f"><path d="M 89.761719 89.761719 L 397.238281 89.761719 L 397.238281 397.238281 L 89.761719 397.238281 Z M 89.761719 89.761719 " clip-rule="nonzero"/></clipPath><clipPath id="578d213bf8"><path d="M 243.5 89.761719 C 158.59375 89.761719 89.761719 158.59375 89.761719 243.5 C 89.761719 328.40625 158.59375 397.238281 243.5 397.238281 C 328.40625 397.238281 397.238281 328.40625 397.238281 243.5 C 397.238281 158.59375 328.40625 89.761719 243.5 89.761719 Z M 243.5 89.761719 " clip-rule="nonzero"/></clipPath><clipPath id="24bdcc5acf"><path d="M 161.539062 138.253906 L 325.621094 138.253906 L 325.621094 348.789062 L 161.539062 348.789062 Z M 161.539062 138.253906 " clip-rule="nonzero"/></clipPath></defs><g clip-path="url(#38e4a01d3f)"><g clip-path="url(#578d213bf8)"><path fill="#dedede" d="M 89.761719 89.761719 L 397.238281 89.761719 L 397.238281 397.238281 L 89.761719 397.238281 Z M 89.761719 89.761719 " fill-opacity="1" fill-rule="nonzero"/></g></g><g clip-path="url(#24bdcc5acf)"><path fill="#000000" d="M 294.304688 257.789062 L 294.304688 188.9375 C 294.304688 160.992188 271.546875 138.253906 243.578125 138.253906 C 215.613281 138.253906 192.855469 160.992188 192.855469 188.9375 L 192.855469 257.789062 C 176.714844 263.984375 161.640625 272.457031 161.640625 282.507812 L 161.640625 344.886719 C 161.640625 347.042969 163.390625 348.789062 165.542969 348.789062 L 321.617188 348.789062 C 323.773438 348.789062 325.519531 347.042969 325.519531 344.886719 L 325.519531 282.507812 C 325.519531 272.457031 310.445312 263.984375 294.304688 257.789062 Z M 200.660156 188.9375 C 200.660156 165.292969 219.914062 146.050781 243.578125 146.050781 C 267.246094 146.050781 286.5 165.292969 286.5 188.9375 L 286.5 254.984375 C 277.523438 251.953125 268.917969 249.664062 263.089844 248.242188 L 263.089844 241.34375 C 278.675781 229.28125 278.695312 202.285156 278.695312 188.9375 C 278.695312 186.785156 276.953125 185.039062 274.792969 185.039062 L 243.578125 185.039062 C 237.125 185.039062 231.875 179.789062 231.875 173.34375 C 231.875 171.191406 230.125 169.445312 227.972656 169.445312 C 225.820312 169.445312 224.070312 171.191406 224.070312 173.34375 C 224.070312 179.789062 218.820312 185.039062 212.367188 185.039062 C 210.210938 185.039062 208.464844 186.785156 208.464844 188.9375 C 208.464844 202.285156 208.484375 229.28125 224.070312 241.34375 L 224.070312 248.242188 C 218.238281 249.664062 209.636719 251.953125 200.660156 254.984375 Z M 243.578125 305.839844 L 216.417969 258.34375 C 218.960938 257.617188 221.515625 256.929688 224.070312 256.28125 L 224.070312 263.015625 C 224.070312 265.171875 225.820312 266.914062 227.972656 266.914062 C 230.125 266.914062 231.875 265.171875 231.875 263.015625 L 231.875 245.578125 C 235.265625 246.761719 239.140625 247.417969 243.578125 247.417969 C 248.023438 247.417969 251.898438 246.761719 255.285156 245.578125 L 255.285156 263.015625 C 255.285156 265.171875 257.03125 266.914062 259.1875 266.914062 C 261.34375 266.914062 263.089844 265.171875 263.089844 263.015625 L 263.089844 256.28125 C 265.644531 256.929688 268.203125 257.617188 270.746094 258.339844 Z M 275.046875 266.527344 L 284.988281 281.425781 L 255.164062 301.292969 Z M 231.992188 301.292969 L 202.167969 281.425781 L 212.109375 266.527344 Z M 243.578125 239.621094 C 220.636719 239.621094 216.609375 217.363281 216.296875 192.40625 C 221.039062 191.433594 225.164062 188.761719 227.972656 185.027344 C 231.535156 189.765625 237.203125 192.835938 243.578125 192.835938 L 270.859375 192.835938 C 270.503906 217.613281 266.394531 239.621094 243.578125 239.621094 Z M 317.714844 340.988281 L 294.304688 340.988281 L 294.304688 321.496094 C 294.304688 319.339844 292.558594 317.597656 290.402344 317.597656 C 288.242188 317.597656 286.5 319.339844 286.5 321.496094 L 286.5 340.988281 L 200.660156 340.988281 L 200.660156 321.496094 C 200.660156 319.339844 198.910156 317.597656 196.757812 317.597656 C 194.605469 317.597656 192.855469 319.339844 192.855469 321.496094 L 192.855469 340.988281 L 169.445312 340.988281 L 169.445312 282.507812 C 169.445312 276.378906 186 268.113281 206.078125 261.503906 L 193.511719 280.34375 C 192.316406 282.136719 192.800781 284.554688 194.59375 285.75 L 241.414062 316.941406 C 241.574219 317.046875 241.753906 317.101562 241.921875 317.183594 C 242.050781 317.246094 242.167969 317.3125 242.300781 317.359375 C 242.71875 317.507812 243.148438 317.597656 243.578125 317.597656 C 244.011719 317.597656 244.4375 317.507812 244.855469 317.355469 C 244.988281 317.308594 245.105469 317.242188 245.234375 317.179688 C 245.402344 317.097656 245.582031 317.046875 245.742188 316.9375 L 292.5625 285.746094 C 294.359375 284.550781 294.84375 282.132812 293.644531 280.339844 L 281.074219 261.496094 C 301.15625 268.105469 317.714844 276.375 317.714844 282.507812 Z M 317.714844 340.988281 " fill-opacity="1" fill-rule="nonzero"/></g></svg>